<svg width="82" height="92" viewBox="0 0 82 92" fill="none" xmlns="http://www.w3.org/2000/svg">
<g clip-path="url(#clip0_1888_3190)">
<path fill-rule="evenodd" clip-rule="evenodd" d="M17.5558 28.0214L38.3597 15.633C41.4607 13.7929 45.1715 13.2453 48.6792 14.1103C52.1869 14.9753 55.2056 17.1824 57.0739 20.248L80.0747 58.1561C81.9253 61.2262 82.4744 64.897 81.6022 68.3668C80.7301 71.8366 78.5074 74.8236 75.4196 76.6755L54.6157 89.0605C51.5167 90.8938 47.8113 91.4378 44.3087 90.5738C40.8061 89.7097 37.791 87.5078 35.9216 84.4489L12.9074 46.5375C11.0573 43.4685 10.5077 39.7991 11.3786 36.3301C12.2494 32.8612 14.4701 29.8743 17.5558 28.0214Z" fill="#303030"/>
<path fill-rule="evenodd" clip-rule="evenodd" d="M53.1922 15.3743L73.7282 27.026C80.0645 30.6224 81.5749 38.6579 77.9446 45.3696L56.3402 85.3381C54.3309 89.0572 49.6423 91.3862 45.4728 91.8972C42.1238 92.3052 39.0595 91.5289 35.1679 89.3226L14.6319 77.6675C8.29565 74.0711 6.39677 65.8167 10.4156 59.3239L34.3608 20.6361C38.3796 14.1434 46.8526 11.7746 53.1922 15.3743Z" fill="white"/>
<path fill-rule="evenodd" clip-rule="evenodd" d="M53.2926 15.3743L74.5218 27.0261C77.6761 28.766 80.0069 31.6722 81.0046 35.1095C82.0024 38.5467 81.5861 42.2355 79.8467 45.3696L58.1955 84.0574C56.4375 87.1805 53.5031 89.4874 50.0336 90.4739C46.5641 91.4605 42.8414 91.0466 39.679 89.3226L18.4497 77.6675C15.2989 75.9259 12.9716 73.0202 11.9759 69.5846C10.9801 66.1491 11.3968 62.4628 13.1349 59.3306L34.776 20.6428C36.5329 17.5184 39.467 15.2103 42.9368 14.223C46.4067 13.2358 50.1299 13.6497 53.2926 15.3743Z" fill="#E25C27"/>
<path fill-rule="evenodd" clip-rule="evenodd" d="M68.6142 68.5538L57.5391 85.129L66.1862 69.7249L68.6142 68.5538Z" fill="white"/>
<path fill-rule="evenodd" clip-rule="evenodd" d="M57.5184 31.7471C58.1059 31.7471 58.6803 31.5745 59.1688 31.2512C59.6573 30.9278 60.038 30.4682 60.2628 29.9305C60.4877 29.3928 60.5465 28.8011 60.4319 28.2302C60.3173 27.6594 60.0344 27.135 59.6189 26.7234C59.2035 26.3119 58.6742 26.0316 58.0979 25.9181C57.5217 25.8045 56.9244 25.8628 56.3816 26.0855C55.8388 26.3083 55.3749 26.6854 55.0485 27.1694C54.7221 27.6533 54.5479 28.2223 54.5479 28.8043C54.5496 29.5843 54.8632 30.3318 55.4199 30.8833C55.9766 31.4348 56.7311 31.7454 57.5184 31.7471Z" fill="white"/>
<path fill-rule="evenodd" clip-rule="evenodd" d="M51.8252 14.6775C52.0328 13.9542 52.3242 12.9655 52.562 12.3551C52.8344 11.6605 53.148 10.9649 53.503 10.2682C55.489 6.37323 58.339 3.36075 61.343 1.64218C64.4676 -0.149379 67.7731 -0.570729 70.526 0.806119C73.2788 2.18297 74.8997 5.06937 75.2949 8.62264C75.6767 12.0399 74.9198 16.1007 72.9339 19.9957C71.1154 23.5623 68.5802 26.3923 65.8407 28.1672C62.9907 30.0218 59.9264 30.7385 57.2405 29.9754C57.0206 29.8988 56.8384 29.7419 56.7314 29.5368C56.6244 29.3316 56.6005 29.0937 56.6646 28.8716C56.7288 28.6496 56.8762 28.4602 57.0766 28.3422C57.277 28.2243 57.5153 28.1866 57.7429 28.2369C59.8996 28.8474 62.4314 28.2369 64.8394 26.661C67.3109 25.0519 69.6318 22.4641 71.3063 19.1796C73.1281 15.6064 73.8247 11.9105 73.4798 8.8217C73.1449 5.86894 71.8655 3.51337 69.7021 2.41852C67.5387 1.32368 64.8528 1.71517 62.2573 3.20482C59.5446 4.76414 56.9558 7.51784 55.134 11.0844C54.8103 11.7258 54.5189 12.3705 54.2599 13.0186C54.1628 13.2674 54.069 13.5129 53.9819 13.7618C53.8949 14.0106 53.6471 14.8865 53.4963 15.4737L53.2921 15.3642C52.8169 15.1073 52.3272 14.878 51.8252 14.6775Z" fill="#303030"/>
<path fill-rule="evenodd" clip-rule="evenodd" d="M56.8923 30.2309C62.1536 30.5893 66.2494 28.7413 69.7156 24.8032C72.4919 21.6447 73.6205 18.7782 74.7994 15.0325C73.8315 20.3973 71.5777 24.5942 67.6995 27.7593C64.307 30.5295 61.092 31.4618 56.7383 31.2428L56.8923 30.2309Z" fill="white"/>
<path fill-rule="evenodd" clip-rule="evenodd" d="M14.8762 67.0674C3.41933 68.7263 -6.22241 71.198 8.51314 73.3379C23.2487 75.4778 41.7485 79.9103 49.2503 76.7883L79.1065 64.3668C81.6115 63.3217 81.1594 62.0444 78.6008 61.5269C74.7662 60.7472 70.3422 59.9509 69.6221 59.9111C69.6155 59.9111 17.4181 65.0602 14.8762 67.0674Z" fill="#303030"/>
<path fill-rule="evenodd" clip-rule="evenodd" d="M47.9472 56.8987L42.696 56.5868C40.0905 56.4309 37.7429 60.2363 37.4582 65.0768C37.1735 69.9174 39.0523 73.9716 41.6612 74.1275L46.9124 74.4427C49.5179 74.5953 51.8656 70.7932 52.1502 65.9527C52.4349 61.1122 50.5561 57.0546 47.9472 56.8987Z" fill="#303030"/>
<path fill-rule="evenodd" clip-rule="evenodd" d="M73.7651 52.9207L70.8883 52.7482C69.4583 52.6653 68.1723 55.3294 68.0149 58.7002C67.8575 62.071 68.889 64.8744 70.319 64.9607L73.1991 65.1299C74.6291 65.2162 75.9118 62.552 76.0692 59.1813C76.2266 55.8105 75.1951 53.007 73.7651 52.9207Z" fill="#303030"/>
<path fill-rule="evenodd" clip-rule="evenodd" d="M16.0555 58.8495L13.1754 58.2224C11.7454 57.9139 10.4594 60.3756 10.302 63.7232C10.1446 67.0707 11.1794 70.0268 12.6061 70.3586L15.4862 70.9823C16.9162 71.2909 18.2022 68.8291 18.3596 65.4849C18.517 62.1406 17.4855 59.158 16.0555 58.8495Z" fill="#303030"/>
<path fill-rule="evenodd" clip-rule="evenodd" d="M0.448277 62.5686C0.307619 60.9728 0.250688 58.9988 0.649218 57.5522C0.959577 56.4584 1.49808 55.4412 2.22994 54.5663C2.33975 53.6066 2.5646 52.6632 2.89974 51.7562C3.24629 50.6651 3.90189 49.6954 4.78857 48.9627C5.31308 48.6067 5.8829 48.3211 6.48316 48.1134C7.21993 47.8214 7.97011 47.5593 8.72363 47.3005C10.733 46.6138 12.7424 45.9735 14.7518 45.353C17.3774 44.5413 20.0086 43.7484 22.6454 42.9742C29.7385 37.2147 34.7185 35.0814 44.0789 34.9819C51.3127 34.9023 61.3061 35.4796 67.5486 39.3646C69.4749 40.5303 71.2295 41.9538 72.763 43.5947C73.2108 44.0605 73.7057 44.4797 74.2399 44.8454C74.8327 45.2701 75.4489 45.6616 76.0751 46.0332C76.4268 46.2389 76.7885 46.4545 77.1602 46.6304C78.5601 47.2939 78.8816 48.7338 79.0926 50.1073C79.2567 51.159 79.3538 52.2207 79.4442 53.2824C79.5614 54.6493 79.4811 56.0427 79.6452 57.4295C79.9801 60.4154 78.5166 61.4439 76.122 61.497L75.5962 53.0269V51.096L6.83815 56.109C4.36994 55.555 4.08193 66.2214 3.64991 66.6494C0.193753 66.4437 -0.45595 63.8293 0.448277 62.5686Z" fill="white"/>
<path fill-rule="evenodd" clip-rule="evenodd" d="M23.3021 44.2051C30.1574 38.6015 34.8125 36.445 44.0959 36.3455C50.8743 36.2758 60.8141 36.7834 66.8255 40.5225C68.6348 41.6269 70.2871 42.9658 71.7385 44.5037C72.2513 45.0462 72.8217 45.5322 73.4398 45.9536C74.0627 46.4014 74.7157 46.8195 75.3788 47.211C75.7573 47.4333 76.1759 47.6788 76.5711 47.8745C77.4518 48.2892 77.6126 49.5002 77.7399 50.3296C77.8973 51.3481 77.9944 52.3866 78.0748 53.4118C78.1518 54.3507 78.2188 55.2896 78.2824 56.2285C78.3192 56.7427 78.3393 57.2902 78.3996 57.8011C78.4917 58.6143 78.299 59.4342 77.8537 60.1235L77.7667 60.2429L74.5416 62.8639V57.6053C74.5513 56.8464 74.484 56.0883 74.3406 55.3427C74.2755 55.0237 74.1709 54.7139 74.0292 54.4203C73.9794 54.4437 73.9313 54.4703 73.8852 54.5C73.2958 54.8682 72.8001 56.9849 72.6628 57.6485C72.3855 59.0798 72.212 60.5289 72.1437 61.9847L72.1035 62.7445L50.7905 69.9671L51.0216 67.9765C51.2895 65.684 51.4536 61.2814 50.5729 59.0784C50.315 58.4381 49.8562 57.7513 49.1663 57.5191C47.6124 57.0015 46.1522 58.9822 45.5293 60.0505C45.0862 60.8691 44.7487 61.7397 44.5246 62.6416C44.0888 64.4461 43.8452 66.2909 43.7979 68.1457C43.7644 68.8491 43.7476 69.559 43.7007 70.2591C43.6606 70.8397 43.6103 71.5397 43.195 71.971C42.2473 72.9431 38.7308 72.8635 37.4515 72.8369C35.3249 72.7938 33.1749 72.6113 31.0483 72.3791C27.8366 72.0307 24.6249 71.5497 21.43 71.0022C18.5599 70.5112 3.90136 68.0395 1.67093 65.6939C0.786801 64.765 1.17863 63.7033 1.89196 62.9767C1.72451 61.3809 1.63074 59.2111 1.99578 57.8873C2.29524 56.8436 2.84568 55.8873 3.59995 55.1005C3.65727 54.1143 3.86037 53.1418 4.20277 52.2141C4.4651 51.3716 4.9605 50.6187 5.63278 50.041C6.06276 49.7674 6.52359 49.5447 7.00587 49.3774C7.72255 49.0954 8.45263 48.8366 9.18606 48.5878C11.1687 47.9243 13.1781 47.2607 15.1841 46.6536C17.8812 45.8153 20.5871 44.9992 23.3021 44.2051Z" fill="#303030"/>
<path fill-rule="evenodd" clip-rule="evenodd" d="M23.9187 45.2867C20.0473 46.4214 7.52878 50.1438 6.35998 51.0197C5.19118 51.8956 4.76921 54.6692 4.76921 55.1801V55.7076C3.97259 56.3855 3.39975 57.2847 3.12486 58.2888C2.6627 59.9709 3.12486 63.5441 3.12486 63.5441C3.12486 63.5441 1.93261 64.3403 2.48855 64.9242C3.04448 65.5081 6.41356 67.2466 21.5309 69.8411C36.6482 72.4355 41.742 71.6791 42.2712 71.1316C42.8003 70.5842 42.0066 63.7597 44.4447 59.4367C46.8828 55.1138 50.3858 55.5351 51.6584 58.7135C52.931 61.8918 52.1909 68.2021 52.1909 68.2021L70.9151 61.8553C70.9151 61.8553 70.5233 58.6537 71.0825 55.9896C71.3404 54.7455 72.0571 53.3089 72.6666 52.9274C73.8254 52.1975 75.4999 52.9274 75.9587 54.0322C76.8328 56.1356 76.6117 57.5755 76.6285 59.6325L76.8595 59.4002C77.1454 58.9388 77.2635 58.3945 77.1944 57.8575C77.0873 56.9451 76.7289 49.2315 76.0926 48.9362C75.4563 48.6409 72.2748 46.8693 70.8414 45.2602C68.7564 43.0923 66.2742 41.337 63.5272 40.0879C58.9692 38.0309 48.9122 37.5034 44.1835 37.5531C35.235 37.6361 30.8277 39.6167 23.9187 45.2867Z" fill="#E25C27"/>
<path fill-rule="evenodd" clip-rule="evenodd" d="M8.45922 53.9791C8.32861 54.1184 8.1779 54.9512 8.1712 55.9697C8.1723 56.1863 8.24789 56.396 8.38548 56.5643C8.52308 56.7325 8.71447 56.8493 8.92808 56.8954C12.8497 57.9371 20.1472 58.8661 24.7152 59.2642C25.529 59.3372 26.316 59.4931 26.6978 58.6869C27.0796 57.8807 27.1097 57.2039 26.6342 56.7461C26.2993 56.4143 20.606 55.7508 15.9174 55.0872C11.7647 54.5133 8.51615 53.9393 8.47262 53.9857L8.45922 53.9791ZM8.04395 57.1608C8.04395 57.0745 11.5503 58.5808 16.5671 59.0552C18.6033 59.2509 22.6522 59.9576 25.3046 59.7785C26.2089 59.7154 26.2022 59.6524 25.5558 60.442C23.9952 62.343 22.3274 62.4326 18.6435 62.0644C14.6716 61.6596 12.0259 61.069 9.78542 60.2529C8.76398 59.8813 8.20805 58.4381 8.04395 57.1608Z" fill="#B73B15"/>
<path fill-rule="evenodd" clip-rule="evenodd" d="M2.98392 59.1613C2.89998 60.6237 2.95042 62.0907 3.13462 63.544C3.13462 63.544 1.94238 64.3403 2.49831 64.9242C3.05424 65.5081 6.42333 67.2466 21.5407 69.841C36.658 72.4355 41.7518 71.679 42.281 71.1316C42.8101 70.5842 42.0164 63.7597 44.4545 59.4367C46.8925 55.1137 50.3956 55.5351 51.6682 58.7134C52.9408 61.8918 52.2007 68.2021 52.2007 68.2021L70.9249 61.8553C70.9249 61.8553 70.7239 54.6128 72.6764 53.4814C74.6288 52.3501 75.4929 53.8464 75.9684 55.5749C76.521 57.5921 76.2196 60.1235 76.2698 60.0671L76.866 59.4035C77.1518 58.9421 77.2699 58.3978 77.2009 57.8608C77.1171 57.1342 76.866 52.0979 76.454 49.9248C76.3712 50.3054 76.2592 50.6792 76.1191 51.0429C75.6938 52.1212 69.6455 52.5491 69.6455 52.5491L51.8222 56.6366C51.8222 56.6366 50.6032 54.6725 48.2689 54.9014C45.9347 55.1303 44.2904 58.604 42.9106 61.205C41.8221 63.2521 38.8616 64.4365 36.9762 64.7019C38.9219 66.1053 40.5998 70.1828 39.6185 70.4316C38.6373 70.6804 32.7229 70.1761 32.2507 69.6221C31.7785 69.068 31.1355 65.309 30.8174 65.1763C30.4992 65.0436 25.8307 64.5128 25.8307 64.5128C26.9973 64.2587 28.1767 64.066 29.3639 63.9355C26.9761 63.9753 24.8193 64.2043 24.5079 64.3635C23.8682 64.6953 21.2192 64.1677 21.2192 64.1677C21.2192 64.1677 7.79642 62.2634 7.10652 61.7491C6.41663 61.2349 3.8848 59.523 2.98392 59.1613Z" fill="#B73B15"/>
<path fill-rule="evenodd" clip-rule="evenodd" d="M3.058 58.6338C2.7231 60.4121 2.92404 63.3052 2.92404 63.3052C2.99102 63.6004 3.63403 63.8957 4.0627 63.9886C4.49137 64.0815 4.95353 64.2142 5.0674 63.8824C5.34687 63.1059 5.53455 62.2998 5.62668 61.4804C5.74389 60.442 5.67021 60.1699 3.058 58.6338Z" fill="#303030"/>
<path fill-rule="evenodd" clip-rule="evenodd" d="M6.36967 51.0363C5.20422 51.9122 4.7789 54.6858 4.7789 55.1967V55.7242L4.71191 55.7773C5.35947 56.2301 6.04135 56.6327 6.75145 56.9816C6.78906 56.9972 6.82959 57.0045 6.87032 57.0032C6.91106 57.0019 6.95103 56.992 6.98754 56.974C7.02405 56.9561 7.05625 56.9306 7.08197 56.8993C7.10768 56.868 7.12631 56.8316 7.13658 56.7925C7.2337 55.8868 7.15333 54.1848 7.15333 53.9227C7.15333 53.7103 6.70457 50.7675 6.36967 51.0363Z" fill="#303030"/>
<path fill-rule="evenodd" clip-rule="evenodd" d="M35.4591 38.5949C31.4738 39.7096 28.1784 41.7965 23.9453 45.2734L52.2945 47.7783C52.2945 47.7783 55.6067 39.8423 55.3689 39.5039C55.1311 39.1655 41.5175 38.7608 35.4591 38.5949Z" fill="#303030"/>
<path fill-rule="evenodd" clip-rule="evenodd" d="M26.5978 42.9643C25.3519 42.178 23.5468 42.3605 22.9373 44.454C22.3278 46.5474 24.8965 44.8587 26.5978 42.9643Z" fill="#303030"/>
<path fill-rule="evenodd" clip-rule="evenodd" d="M31.8719 55.8105C29.5276 57.3532 26.6742 60.5448 29.1659 60.379C31.6575 60.2131 38.821 59.9543 40.1472 58.6172C41.4734 57.2802 43.3288 54.3905 42.1097 54.1616C40.8907 53.9326 34.4171 55.0175 31.8719 55.8105Z" fill="#303030"/>
<path fill-rule="evenodd" clip-rule="evenodd" d="M8.17836 53.498C8.04105 53.6407 7.88365 54.4734 7.87695 55.4887C7.8815 55.7085 7.96217 55.9201 8.10545 56.088C8.24874 56.2559 8.44592 56.3699 8.66396 56.411C12.7497 57.4527 20.3519 58.3817 25.1108 58.7831C25.9581 58.8528 26.7853 59.0121 27.1772 58.2059C27.569 57.3997 27.6058 56.7228 27.1102 56.2617C26.7552 55.9299 20.8308 55.2498 15.9346 54.6028C11.6077 54.0255 8.23194 53.4549 8.17836 53.498ZM7.95398 56.8157C7.95398 56.7262 11.3967 58.113 16.6245 58.5907C18.7444 58.7831 22.9608 59.4931 25.7237 59.3107C26.6648 59.2509 26.6614 59.1879 25.9883 59.9742C24.3607 61.8719 22.6393 61.9648 18.788 61.5966C14.6486 61.1918 11.9962 60.5117 9.66196 59.7021C8.58359 59.3306 8.10803 58.0798 7.93723 56.8025L7.95398 56.8157Z" fill="#303030"/>
<path fill-rule="evenodd" clip-rule="evenodd" d="M24.7891 64.5062C28.5567 63.6801 33.7543 63.3052 35.7704 64.5825C37.7865 65.8598 39.5882 70.1695 38.5835 70.425C37.5788 70.6804 31.6846 70.1695 31.2158 69.6154C30.7469 69.0614 30.1006 65.3024 29.7824 65.1697C29.4642 65.037 24.7891 64.5062 24.7891 64.5062Z" fill="#303030"/>
<path fill-rule="evenodd" clip-rule="evenodd" d="M34.709 66.0954C33.1182 66.0257 32.4719 65.9162 31.0954 65.8731C29.5382 65.8233 27.3781 65.8565 28.0278 66.1186C28.9715 66.3608 29.9336 66.5262 30.9046 66.6129C32.8671 66.8219 34.6353 66.7257 34.709 66.0954Z" fill="#303030"/>
<path fill-rule="evenodd" clip-rule="evenodd" d="M35.717 67.9931C32.3244 67.8438 27.8133 67.522 29.0357 68.0163C30.2581 68.5107 35.6131 68.9519 35.717 67.9931Z" fill="#303030"/>
<path fill-rule="evenodd" clip-rule="evenodd" d="M6.11816 64.7052C7.39078 63.2056 7.49795 62.2667 9.30305 62.479C11.1082 62.6914 22.776 64.7019 22.776 64.7019C22.776 64.7019 24.2061 65.1 25.4787 66.7522L26.7513 68.4111C26.7513 68.4111 19.273 68.4841 6.11816 64.7052Z" fill="#303030"/>
<path fill-rule="evenodd" clip-rule="evenodd" d="M54.15 63.7331L67.9947 59.0419L66.2432 61.6164L54.0596 65.7768L54.15 63.7331Z" fill="#303030"/>
<path fill-rule="evenodd" clip-rule="evenodd" d="M76.5147 50.041C72.0337 48.631 56.1863 51.5273 45.5667 53.7933L45.0811 53.8563C50.0175 51.7994 70.1047 48.7637 74.8234 48.2494C75.4229 48.6011 75.9018 48.8566 76.1094 48.9528C76.2066 48.9992 76.2936 49.2082 76.3774 49.5334L76.5147 50.041Z" fill="#303030"/>
<path fill-rule="evenodd" clip-rule="evenodd" d="M56.8728 41.5709C55.8983 44.1023 54.8367 48.2063 55.1046 48.2361C55.3725 48.266 69.0565 46.1759 69.2675 45.8739C69.7229 45.2104 66.6217 43.0008 64.9138 42.032C62.815 40.8716 60.5163 40.1087 58.1354 39.7826C57.4522 39.6698 57.2546 40.5789 56.8728 41.5709Z" fill="#303030"/>
<path fill-rule="evenodd" clip-rule="evenodd" d="M57.9177 44.935C57.2279 44.9981 56.4844 45.6915 56.4844 47.5892C56.4844 47.921 56.4844 48.1996 56.4844 48.4286C56.5714 50.8737 58.7416 50.5287 58.5875 48.2395C58.5875 48.2395 61.9868 48.13 62.4389 47.7119C62.6666 47.4996 62.8776 47.2242 62.104 46.4081C61.5567 45.8751 60.8985 45.4671 60.1754 45.2127C59.4523 44.9582 58.6817 44.8635 57.9177 44.935Z" fill="#303030"/>
<path fill-rule="evenodd" clip-rule="evenodd" d="M54.1394 62.9004L70.5427 57.9338L67.0698 60.1832L54.0322 65.6541L54.1394 62.9004Z" fill="#303030"/>
<path fill-rule="evenodd" clip-rule="evenodd" d="M9.30712 49.8286L8.97222 50.1173C8.05125 51.1856 5.84761 53.1032 8.27563 53.435C11.7552 53.9293 18.0781 54.845 22.9007 55.4853C25.6234 55.8469 27.3984 56.2816 29.0762 56.1057C30.523 55.9531 34.8197 54.709 39.3777 53.2691C44.6323 51.6102 50.2184 49.7125 52.1876 48.9328C53.7248 48.3224 52.5727 47.8944 50.8848 47.6058L52.0302 47.3437C52.0302 47.3437 54.6022 48.0603 53.2961 49.0888C52.844 49.4438 45.9585 51.8392 39.592 53.8464C35.0006 55.2929 30.6636 56.547 29.1733 56.7029C27.2544 56.9053 25.7774 56.6332 22.6361 56.1853C18.0413 55.5218 11.5074 54.4966 8.23544 54.0322C5.27828 53.6108 6.89585 51.6368 8.01776 50.2964C8.38615 50.1538 8.82486 49.9945 9.30712 49.8286Z" fill="#303030"/>
<path fill-rule="evenodd" clip-rule="evenodd" d="M48.215 58.9225C47.3443 58.8694 46.5004 59.5528 45.8373 60.7008C45.0495 62.189 44.6132 63.8351 44.5613 65.5147C44.5479 65.7514 44.5412 65.9936 44.5412 66.2413C44.5087 67.7421 44.8022 69.2322 45.4019 70.6107C45.9109 71.679 46.6075 72.3691 47.3878 72.4554H47.4682C48.3389 72.5085 49.1829 71.8217 49.846 70.6738C50.6338 69.1867 51.0701 67.5417 51.122 65.8631C51.122 65.6275 51.142 65.382 51.142 65.1332C51.1748 63.6303 50.8812 62.138 50.2814 60.7572C49.7723 59.6889 49.0757 59.0021 48.2954 58.9125L48.215 58.9225ZM45.3115 60.3856C46.0784 59.0585 47.1099 58.2589 48.215 58.3253H48.3255C49.3302 58.4381 50.2144 59.2642 50.8205 60.5349C51.4617 61.9993 51.7759 63.5837 51.7415 65.1797C51.7415 65.4185 51.7415 65.6707 51.7214 65.9394C51.6683 67.7058 51.2102 69.4371 50.3818 71.0022C49.6149 72.3293 48.5834 73.1256 47.4783 73.0625H47.3677C46.363 72.9464 45.4789 72.1236 44.8727 70.8529C44.2315 69.3885 43.9174 67.8041 43.9518 66.2081C43.9518 65.966 43.9518 65.7138 43.9719 65.4484C44.0246 63.6819 44.4827 61.9505 45.3115 60.3856Z" fill="white"/>
<path fill-rule="evenodd" clip-rule="evenodd" d="M48.1011 63.8692C47.8767 63.8692 47.649 64.0284 47.4614 64.3171C47.2161 64.7256 47.079 65.1889 47.0629 65.664C47.0629 65.7271 47.0629 65.7968 47.0629 65.8731C47.0516 66.2919 47.1424 66.7073 47.3275 67.084C47.3691 67.1933 47.4364 67.2912 47.5237 67.3697C47.6111 67.4481 47.716 67.5049 47.8298 67.5352H47.8533C47.9895 67.5218 48.1198 67.4738 48.2319 67.3959C48.3439 67.3181 48.4338 67.2129 48.4929 67.0907C48.7383 66.6809 48.8753 66.2165 48.8915 65.7404C48.8915 65.6773 48.8915 65.6076 48.8915 65.5313C48.902 65.1129 48.8125 64.698 48.6303 64.3204C48.5881 64.2112 48.5202 64.1136 48.4322 64.0357C48.3443 63.9577 48.2388 63.9018 48.1246 63.8725L48.1011 63.8692ZM46.9524 63.9753C47.0623 63.7669 47.2271 63.5917 47.4294 63.4685C47.6316 63.3452 47.8637 63.2785 48.1011 63.2753H48.158C48.3784 63.3155 48.5854 63.4089 48.7606 63.5472C48.9358 63.6855 49.074 63.8644 49.1627 64.0682C49.3907 64.5343 49.5054 65.0467 49.4976 65.5645C49.4976 65.6375 49.4976 65.7171 49.4976 65.8067C49.4752 66.3797 49.307 66.9377 49.0087 67.4291C48.8985 67.6373 48.7336 67.8122 48.5314 67.9354C48.3293 68.0586 48.0973 68.1255 47.86 68.1291H47.8031C47.5823 68.0912 47.3746 67.9991 47.1991 67.8611C47.0236 67.7232 46.8858 67.5438 46.7984 67.3395C46.5685 66.8729 46.4538 66.359 46.4635 65.8399C46.4635 65.7702 46.4635 65.6873 46.4635 65.601C46.4843 65.0268 46.6526 64.4673 46.9524 63.9753Z" fill="white"/>
<path fill-rule="evenodd" clip-rule="evenodd" d="M47.4615 64.2408C47.0831 64.2175 46.7482 64.818 46.708 65.5678C46.6678 66.3176 46.9424 66.9679 47.3209 66.9911C47.6993 67.0144 48.0342 66.4139 48.0744 65.6641C48.1146 64.9143 47.84 64.264 47.4615 64.2408Z" fill="white"/>
<path fill-rule="evenodd" clip-rule="evenodd" d="M47.4615 64.5393C47.3911 64.5393 47.3041 64.6256 47.2203 64.7716C47.0881 65.0338 47.015 65.3213 47.006 65.6143C47.006 65.6474 47.006 65.6906 47.006 65.7437C46.9997 66.0016 47.0476 66.2581 47.1467 66.4968C47.2069 66.6228 47.2672 66.6992 47.3208 66.7058C47.3878 66.7058 47.4749 66.6195 47.5586 66.4702C47.6925 66.2097 47.7668 65.9231 47.7763 65.6309V65.4981C47.7839 65.2411 47.736 64.9855 47.6356 64.7483C47.5787 64.6223 47.5151 64.5426 47.4648 64.5393H47.4615ZM46.6946 64.4597C46.7588 64.3096 46.8652 64.181 47.0012 64.0892C47.1372 63.9975 47.297 63.9464 47.4615 63.9421H47.495C47.6477 63.9735 47.7896 64.0434 47.907 64.1452C48.0243 64.2469 48.1131 64.377 48.1648 64.5227C48.3018 64.8368 48.3702 65.176 48.3657 65.518C48.3657 65.5612 48.3657 65.6143 48.3657 65.6806C48.3547 66.06 48.2574 66.4319 48.081 66.7688C48.0165 66.9187 47.9099 67.047 47.774 67.1388C47.6381 67.2305 47.4785 67.2817 47.3141 67.2864H47.2806C47.1282 67.2557 46.9863 67.1863 46.869 67.0852C46.7516 66.984 46.6627 66.8544 46.6108 66.7091C46.4767 66.3943 46.4094 66.0555 46.4132 65.7138C46.4132 65.674 46.4132 65.6209 46.4132 65.5545C46.4269 65.1752 46.5252 64.8035 46.7012 64.4663L46.6946 64.4597Z" fill="white"/>
<path fill-rule="evenodd" clip-rule="evenodd" d="M73.9125 54.3241C73.4369 54.2976 72.9714 54.7786 72.6097 55.5848C72.1709 56.6521 71.9336 57.7902 71.9098 58.9424C71.9098 59.1082 71.9098 59.2774 71.9098 59.45C71.889 60.481 72.0476 61.5079 72.3786 62.4857C72.6599 63.2222 73.0484 63.6966 73.4704 63.7497H73.5139C73.9895 63.7796 74.455 63.2952 74.8167 62.4923C75.2467 61.4233 75.476 60.2854 75.4932 59.1348C75.4932 58.9722 75.4932 58.803 75.4932 58.6305C75.5152 57.5991 75.3554 56.5718 75.021 55.5948C74.743 54.8549 74.3512 54.3805 73.9326 54.3274L73.9125 54.3241ZM72.3217 55.3692C72.7437 54.4336 73.3063 53.8729 73.9125 53.9094H73.9727C74.532 53.9791 75.0109 54.5464 75.3425 55.4256C75.6966 56.4615 75.8676 57.5502 75.8482 58.6438C75.8482 58.8096 75.8482 58.9755 75.8482 59.1713C75.8218 60.384 75.5709 61.5816 75.1081 62.7046C74.6861 63.6369 74.1235 64.1976 73.5173 64.1611H73.457C72.8977 64.0914 72.4188 63.5274 72.0873 62.6482C71.7332 61.6123 71.5621 60.5236 71.5816 59.4301C71.5816 59.2642 71.5816 59.0983 71.5816 58.9025C71.6073 57.6897 71.8582 56.492 72.3217 55.3692Z" fill="white"/>
<path fill-rule="evenodd" clip-rule="evenodd" d="M73.849 57.7679C73.7284 57.7679 73.6012 57.8807 73.5141 58.0997C73.3775 58.3959 73.3023 58.7163 73.2931 59.0419V59.1879C73.2856 59.474 73.3334 59.7589 73.4337 60.0273C73.5108 60.2064 73.6079 60.3225 73.7117 60.3358C73.8356 60.3358 73.9595 60.223 74.0466 60.0206C74.1847 59.7249 74.26 59.4042 74.2676 59.0784C74.2676 59.0353 74.2676 58.9855 74.2676 58.9324C74.2741 58.6461 74.2252 58.3612 74.1236 58.093C74.0466 57.9139 73.9495 57.7978 73.8457 57.7845L73.849 57.7679ZM73.2194 57.8509C73.3835 57.5191 73.6045 57.3399 73.849 57.3532H73.8825C74.1102 57.3831 74.3011 57.5854 74.4284 57.894C74.557 58.2251 74.6195 58.5777 74.6126 58.9324C74.6126 58.9822 74.6126 59.0386 74.6126 59.1016C74.6026 59.493 74.5114 59.8781 74.3447 60.233C74.1806 60.5647 73.9595 60.7439 73.7151 60.7306H73.6849C73.4572 60.7008 73.2663 60.4984 73.1357 60.1898C73.0087 59.8583 72.9462 59.506 72.9515 59.1514C72.9515 59.1016 72.9515 59.0452 72.9515 58.9822C72.9651 58.5913 73.0562 58.2069 73.2194 57.8509Z" fill="white"/>
<path fill-rule="evenodd" clip-rule="evenodd" d="M73.5006 58.03C73.293 58.03 73.1088 58.4381 73.0854 58.9689C73.0619 59.4997 73.216 59.941 73.4203 59.9642C73.6246 59.9874 73.8154 59.5561 73.8355 59.0253C73.8556 58.4945 73.7083 58.0433 73.5006 58.03Z" fill="white"/>
<path fill-rule="evenodd" clip-rule="evenodd" d="M73.5004 58.239C73.4602 58.239 73.4133 58.2987 73.3698 58.4049C73.2931 58.5915 73.2522 58.7906 73.2492 58.9921V59.0817C73.2441 59.2584 73.2701 59.4347 73.3263 59.6026C73.3564 59.6888 73.3932 59.7452 73.42 59.7486C73.42 59.7486 73.5071 59.6888 73.554 59.586C73.6271 59.3985 73.6668 59.1998 73.6712 58.9988V58.9059C73.6758 58.7291 73.6498 58.553 73.5942 58.385C73.564 58.2987 73.5305 58.2456 73.5004 58.2423V58.239ZM73.0784 58.1892C73.1823 57.9537 73.3296 57.8143 73.5004 57.8243H73.5172C73.6779 57.8442 73.8085 57.9935 73.8922 58.2224C73.9697 58.4477 74.0071 58.6845 74.0028 58.9225C74.0028 58.9523 74.0028 58.9921 74.0028 59.0353C73.9963 59.2958 73.943 59.553 73.8454 59.795C73.7415 60.0306 73.5942 60.1732 73.4234 60.16H73.4066C73.2459 60.14 73.1153 59.9908 73.0316 59.7618C72.9556 59.5362 72.9183 59.2996 72.921 59.0618C72.921 59.0319 72.921 58.9954 72.921 58.949C72.9275 58.6885 72.9808 58.4312 73.0784 58.1892Z" fill="white"/>
<path fill-rule="evenodd" clip-rule="evenodd" d="M2.88394 58.4414C4.65818 59.3677 6.2752 60.5632 7.67635 61.9847C5.59328 61.6529 4.78282 61.3212 2.82031 60.7273L2.88394 58.4414Z" fill="#303030"/>
<path fill-rule="evenodd" clip-rule="evenodd" d="M3.22487 61.3842C3.95829 61.633 4.26305 61.6795 4.89936 61.9051C5.61604 62.1606 6.60065 62.5885 6.28584 62.6516C5.83317 62.6432 5.38325 62.5797 4.94625 62.4625C4.01188 62.2402 3.20812 61.8421 3.22487 61.3842Z" fill="#303030"/>
<path fill-rule="evenodd" clip-rule="evenodd" d="M2.99036 62.3762C4.55433 62.9037 6.64076 63.5208 6.04464 63.6402C5.44852 63.7597 2.97026 63.0563 2.99036 62.3762Z" fill="#303030"/>
<path fill-rule="evenodd" clip-rule="evenodd" d="M41.6113 55.555C38.8719 55.7906 33.7446 55.6512 31.5912 57.2769C30.638 58.0713 29.7333 58.921 28.8818 59.8216C29.5529 58.7562 30.3789 57.7948 31.3333 56.9683C33.5336 55.1204 38.6408 55.1137 41.5075 54.7886L41.6113 55.555Z" fill="white"/>
<path fill-rule="evenodd" clip-rule="evenodd" d="M41.2929 54.8052C42.7799 54.6858 40.1241 57.8641 39.6184 58.2722C39.23 58.604 38.0946 58.7566 37.5521 58.8495L36.6445 58.9988L36.8053 58.1859C36.8053 58.1329 36.9526 58.1096 37.1402 58.0798C38.731 57.8144 38.8582 56.0493 37.8937 55.8237L36.9828 55.7109L37.0732 55.346L41.2929 54.8052Z" fill="white"/>
<path fill-rule="evenodd" clip-rule="evenodd" d="M5.63672 51.952C5.9908 52.3454 6.22329 52.8314 6.30652 53.3521C6.44717 54.0554 6.57444 54.855 6.74189 56.0394C6.74189 55.1304 6.75863 54.9379 6.70169 54.0488C6.61797 52.8146 6.42038 52.0183 5.96492 51.4377C5.84161 51.6001 5.73185 51.772 5.63672 51.952Z" fill="white"/>
<path fill-rule="evenodd" clip-rule="evenodd" d="M4.7793 55.2067C5.06995 55.4568 5.38393 55.6789 5.71701 55.8702C5.6896 55.6443 5.6896 55.416 5.71701 55.1901C5.71701 55.1403 5.64333 55.0706 5.53951 54.981C4.69557 54.2512 5.44909 51.9022 6.2696 53.1331C6.37325 53.2775 6.48506 53.4159 6.60449 53.5478L6.48058 52.5525L5.67012 51.9122C5.1726 52.9372 4.87383 54.0458 4.78934 55.1801L4.7793 55.2067Z" fill="white"/>
<path fill-rule="evenodd" clip-rule="evenodd" d="M57.2412 45.227C58.2436 45.2392 59.2303 45.4751 60.128 45.9171C61.0155 46.3085 61.4107 46.7996 61.5815 47.2773C61.657 47.4911 61.701 47.7146 61.7121 47.9409C61.9746 47.9143 62.2276 47.8292 62.4522 47.692C62.5451 47.6274 62.613 47.5334 62.6446 47.4254C62.6763 47.3174 62.6698 47.202 62.6264 47.0982C62.5088 46.8313 62.3393 46.59 62.1274 46.3882C61.5769 45.8532 60.9146 45.4446 60.1871 45.1912C59.4597 44.9378 58.685 44.8458 57.9177 44.9217C57.6652 44.9497 57.4282 45.0566 57.2412 45.227Z" fill="white"/>
<path fill-rule="evenodd" clip-rule="evenodd" d="M33.0244 44.6563C30.1979 43.9762 31.7585 42.0022 37.6896 39.1025C37.425 39.1025 34.0727 39.0295 33.7746 39.139C31.0418 40.1343 28.5401 41.6771 25.6767 43.89C25.2699 44.2689 24.8332 44.6151 24.3706 44.9251L23.9453 45.2569L46.0218 47.2243C42.0533 46.6536 35.851 45.3398 33.0244 44.6563Z" fill="white"/>
<path fill-rule="evenodd" clip-rule="evenodd" d="M22.6455 44.6994C31.6376 45.2037 41.8821 46.0597 50.777 47.42C51.4983 47.5026 52.2109 47.6469 52.907 47.8513L52.5118 47.8214C42.4649 46.9256 32.7327 45.9635 22.5986 45.5355C22.5432 45.5329 22.4889 45.5195 22.4387 45.4961C22.3885 45.4727 22.3435 45.4397 22.3062 45.399C22.2688 45.3583 22.24 45.3108 22.2212 45.2591C22.2024 45.2073 22.1941 45.1525 22.1968 45.0976C22.1994 45.0427 22.2129 44.9888 22.2366 44.9391C22.2602 44.8894 22.2935 44.8448 22.3346 44.8078C22.4175 44.7332 22.5269 44.6942 22.6388 44.6994H22.6455Z" fill="#303030"/>
<path fill-rule="evenodd" clip-rule="evenodd" d="M50.3952 48.8367C48.5901 49.5002 30.6897 55.3759 28.0373 55.3759C26.6006 55.3759 13.8208 53.7834 8.36534 52.9141C7.54484 52.7814 7.29702 52.3468 7.32046 52.1212C7.0023 52.7449 7.09607 53.2757 8.26487 53.4483L15.8235 54.5265L17.9301 54.8218C19.6414 55.0607 21.3427 55.2929 22.8899 55.4853C25.6126 55.847 27.3876 56.2816 29.0654 56.1057C30.5122 55.9531 34.809 54.709 39.3669 53.2691C44.6215 51.6103 50.2076 49.7125 52.1768 48.9329C53.3825 48.4518 52.9337 48.0869 51.8654 47.8082C51.939 48.0669 51.5003 48.4153 50.3952 48.8367Z" fill="white"/>
<path fill-rule="evenodd" clip-rule="evenodd" d="M1.24917 63.6701C0.522435 65.1365 1.62425 66.0854 3.16144 66.7158C6.22576 67.9699 10.9445 68.8358 15.8039 69.7017C21.5708 70.7435 27.5689 71.7388 31.6948 72.5085L30.7504 72.4388C22.9975 71.6326 12.3745 70.0998 4.73881 68.149C1.75151 67.3859 -1.00471 66.0157 0.358333 63.1393L1.24917 63.6701Z" fill="white"/>
<path fill-rule="evenodd" clip-rule="evenodd" d="M52.2812 69.3699L70.061 63.69L51.8994 70.5742L52.2812 69.3699Z" fill="white"/>
<path fill-rule="evenodd" clip-rule="evenodd" d="M51.4004 56.0129C55.3857 54.8782 69.4849 51.9055 72.8875 52.0515C65.2652 53.7966 58.4869 55.5086 52.2946 57.5556L51.4004 56.0129Z" fill="white"/>
</g>
<defs>
<clipPath id="clip0_1888_3190">
<rect width="82" height="92" fill="white"/>
</clipPath>
</defs>
</svg>
