<svg width="18" height="18" viewBox="0 0 18 18" fill="none" xmlns="http://www.w3.org/2000/svg">
<g clip-path="url(#clip0_3726_7260)">
<mask id="mask0_3726_7260" style="mask-type:luminance" maskUnits="userSpaceOnUse" x="0" y="0" width="18" height="18">
<path d="M18 0H0V18H18V0Z" fill="white"/>
</mask>
<g mask="url(#mask0_3726_7260)">
<path d="M0 13.1806C0.109617 12.8747 0.162035 12.5299 0.339152 12.2701C0.980684 11.3291 1.46334 10.2996 2.04205 9.32468C2.57885 8.42028 3.39514 7.94954 4.42948 7.91783C5.60014 7.8819 6.77362 7.8812 7.94426 7.9179C9.00053 7.95098 9.82719 8.43698 10.3575 9.37024C10.7796 10.113 11.1858 10.8648 11.6019 11.611C11.6526 11.7021 11.7146 11.7885 11.7815 11.8687C12.1673 12.3312 12.3735 12.8602 12.3744 13.4641C12.3762 14.6828 12.3656 15.9015 12.38 17.12C12.3852 17.5562 12.2332 17.8542 11.8125 17.9969C11.0977 17.9969 10.3828 17.9969 9.668 17.9969C9.15082 17.8291 9.06504 17.4194 9.10891 16.953C7.14811 16.953 5.21416 16.953 3.25839 16.953C3.3197 17.436 3.21254 17.827 2.70707 17.9969C1.99223 17.9969 1.27737 17.9969 0.562535 17.9969C0.278437 17.9061 0.0903515 17.7191 3.51369e-05 17.4344C-1.93104e-08 16.0165 0 14.5985 0 13.1806ZM1.41079 15.5359C2.2674 15.5359 3.10405 15.5375 3.94066 15.5319C3.99076 15.5315 4.05587 15.4842 4.08779 15.44C4.25876 15.2026 4.42301 14.9603 4.58645 14.7177C4.743 14.4852 4.95826 14.3738 5.23884 14.375C5.88294 14.3778 6.52704 14.3772 7.17114 14.3752C7.43713 14.3744 7.64585 14.4783 7.80103 14.6942C7.97527 14.9366 8.15572 15.1746 8.32465 15.4205C8.38473 15.508 8.44949 15.539 8.55461 15.5384C9.28652 15.5339 10.0185 15.536 10.7504 15.536C10.8187 15.536 10.8869 15.536 10.9621 15.536C10.9621 14.791 10.9788 14.0656 10.9508 13.3419C10.9435 13.1548 10.828 12.9478 10.7065 12.7939C10.4188 12.4292 10.0098 12.3013 9.55466 12.3014C7.31197 12.3019 5.06932 12.3011 2.82663 12.3032C2.69873 12.3033 2.56887 12.3153 2.44325 12.3393C1.89207 12.4446 1.43568 12.8765 1.41739 13.3741C1.39127 14.0865 1.41079 14.8005 1.41079 15.5359ZM9.59256 10.8911C9.44385 10.6215 9.30442 10.3793 9.1749 10.1319C8.88086 9.57038 8.40372 9.318 7.78672 9.31494C6.72082 9.30959 5.65488 9.31125 4.58898 9.31599C4.43851 9.31666 4.2852 9.33846 4.13824 9.37235C3.33436 9.5578 3.14529 10.2857 2.78156 10.8911C5.06137 10.8911 7.30962 10.8911 9.59256 10.8911Z" fill="#3CBBEF"/>
<path d="M17.999 12.7951C17.8563 13.2165 17.5579 13.3768 17.1212 13.362C16.5827 13.3437 16.0432 13.3585 15.5041 13.3573C15.0181 13.3563 14.734 13.0687 14.7318 12.5783C14.7314 12.492 14.7317 12.4059 14.7317 12.3029C14.4814 12.3029 14.2486 12.3032 14.0157 12.3029C13.5384 12.3022 13.2203 12.0232 13.2182 11.6036C13.2162 11.1828 13.5347 10.897 14.0077 10.8968C14.7988 10.8964 15.5898 10.8967 16.3808 10.8967C16.4442 10.8967 16.5076 10.8967 16.5707 10.8967C16.5802 10.8698 16.5905 10.8541 16.5905 10.8384C16.5913 10.0592 16.5995 9.27976 16.5884 8.50062C16.581 7.98892 16.1442 7.53513 15.5705 7.42097C15.4282 7.39264 15.28 7.3829 15.1344 7.38265C13.5114 7.38005 11.8883 7.38237 10.2653 7.38019C9.74784 7.37949 9.40556 6.92123 9.56436 6.45137C9.66421 6.15595 9.92784 5.97556 10.2699 5.97524C11.4476 5.97412 12.6253 5.97479 13.8031 5.97479C14.2644 5.97479 14.7258 5.97479 15.2437 5.97479C14.9961 5.57457 14.7983 5.18725 14.5359 4.85032C14.288 4.53205 13.907 4.40035 13.5058 4.39712C12.375 4.38797 11.2439 4.38087 10.1134 4.39961C9.56296 4.40872 9.12502 4.66019 8.8534 5.16001C8.71369 5.4171 8.57602 5.67543 8.43026 5.92908C8.36353 6.04521 8.28911 6.15974 8.20143 6.26043C7.97815 6.51683 7.64293 6.57452 7.35901 6.41737C7.08789 6.26729 6.90704 5.92434 7.04166 5.63806C7.37842 4.92193 7.66603 4.16624 8.31055 3.6427C8.82939 3.22124 9.42694 2.99913 10.0908 2.99167C11.2391 2.97881 12.3883 2.96376 13.5359 2.99526C14.6069 3.02469 15.4439 3.50689 15.9833 4.45196C16.3198 5.04153 16.6364 5.64249 16.9738 6.23153C17.1475 6.53483 17.3406 6.82782 17.5373 7.11698C17.7515 7.43184 17.9014 7.76965 17.9651 8.14547C17.9718 8.18443 17.9875 8.22183 17.999 8.25998C17.999 9.77166 17.999 11.2834 17.999 12.7951Z" fill="#3CBBEF"/>
<path d="M9.56083 0C9.7647 0.0463359 9.98004 0.0654257 10.1698 0.14523C10.4797 0.275625 10.7909 0.419027 11.0688 0.605777C11.4025 0.829969 11.4454 1.27174 11.2093 1.58495C10.979 1.89053 10.5628 1.95891 10.2392 1.72473C9.92632 1.49829 9.58014 1.40611 9.20143 1.40621C8.12941 1.4065 7.05739 1.40182 5.98544 1.40801C5.36799 1.41159 4.89261 1.66778 4.60053 2.23066C4.47214 2.47806 4.33155 2.71912 4.18256 2.98825C4.72147 2.98825 5.22909 2.98765 5.73671 2.98877C5.83606 2.98898 5.93774 2.9835 6.03435 3.00175C6.39361 3.0696 6.63706 3.39609 6.60511 3.75479C6.57322 4.11282 6.27893 4.38919 5.90817 4.39277C5.3283 4.3984 4.7483 4.39182 4.16839 4.39569C3.79173 4.39819 3.45476 4.51557 3.17526 4.77485C2.93578 4.997 2.80971 5.2708 2.81069 5.60057C2.81175 5.95789 2.81252 6.31526 2.81041 6.67255C2.80788 7.1029 2.51324 7.41526 2.11161 7.41737C1.70939 7.41948 1.40353 7.10694 1.40627 6.6806C1.40944 6.18915 1.40363 5.69616 1.44083 5.20682C1.47444 4.76469 1.68225 4.38086 1.95309 4.03207C2.03153 3.93107 2.10669 3.82567 2.16899 3.71426C2.5774 2.98403 2.98391 2.25267 3.38715 1.51956C3.86137 0.657422 4.59185 0.172336 5.55851 0.0290741C5.59254 0.0240116 5.62523 0.00987891 5.65856 0C6.95927 0 8.26005 0 9.56083 0Z" fill="#3CBBEF"/>
<path d="M4.43665 5.34378C4.82306 5.3475 5.13535 5.66665 5.13162 6.05397C5.1279 6.44009 4.80829 6.75288 4.42136 6.74904C4.03517 6.74525 3.72284 6.42589 3.7266 6.03868C3.73036 5.65185 4.04902 5.34002 4.43665 5.34378Z" fill="#3CBBEF"/>
<path d="M15.6433 9.14122C15.6428 9.52759 15.3259 9.84336 14.9395 9.84277C14.5527 9.84217 14.2376 9.52576 14.2383 9.1388C14.239 8.75155 14.5547 8.43687 14.9419 8.4375C15.3287 8.4381 15.6438 8.75426 15.6433 9.14122Z" fill="#3CBBEF"/>
<path d="M3.02876 14.6631C2.64166 14.6661 2.32314 14.3528 2.32033 13.9663C2.31752 13.5787 2.63005 13.2607 3.01674 13.2578C3.40412 13.2548 3.72232 13.5676 3.72535 13.9543C3.72837 14.3413 3.41509 14.66 3.02876 14.6631Z" fill="#3CBBEF"/>
<path d="M10.0182 13.9594C10.0187 14.346 9.70302 14.6626 9.31651 14.663C8.92982 14.6635 8.61359 14.3478 8.61328 13.9611C8.61296 13.5737 8.92775 13.2582 9.31486 13.2578C9.70186 13.2573 10.0177 13.5725 10.0182 13.9594Z" fill="#3CBBEF"/>
</g>
</g>
<defs>
<clipPath id="clip0_3726_7260">
<rect width="18" height="18" fill="white"/>
</clipPath>
</defs>
</svg>
