<svg width="18" height="18" viewBox="0 0 18 18" fill="none" xmlns="http://www.w3.org/2000/svg">
<g clip-path="url(#clip0_3726_7296)">
<mask id="mask0_3726_7296" style="mask-type:luminance" maskUnits="userSpaceOnUse" x="0" y="0" width="18" height="18">
<path d="M18 0H0V18H18V0Z" fill="white"/>
</mask>
<g mask="url(#mask0_3726_7296)">
<path d="M4.09649 0C4.5256 0.0831445 4.84335 0.339293 5.13142 0.650567C5.36904 0.907313 5.62125 1.15063 5.87128 1.40428C6.09909 1.17911 6.31535 0.974074 6.52126 0.759129C6.69813 0.574488 6.90309 0.488109 7.16149 0.488601C9.32933 0.49275 11.4972 0.489621 13.6651 0.491414C15.2678 0.49275 16.5059 1.72529 16.5083 3.32965C16.5123 6.08927 16.5098 8.8489 16.5091 11.6086C16.509 12.0573 16.2225 12.3702 15.8145 12.3738C15.4016 12.3774 15.1037 12.0574 15.1035 11.6039C15.1026 9.51219 15.1031 7.4205 15.1031 5.32881C15.1031 5.25931 15.1031 5.18984 15.1031 5.09646C15.0243 5.09646 14.9564 5.09646 14.8885 5.09646C13.4355 5.09646 11.9824 5.09361 10.5294 5.09903C10.259 5.10005 10.0465 5.0098 9.85699 4.81859C9.0073 3.96141 8.15128 3.11052 7.29846 2.25643C7.25743 2.21534 7.22505 2.16562 7.17836 2.10702C7.11055 2.17171 7.06414 2.21389 7.02006 2.25837C5.88166 3.40685 4.74234 4.55442 3.60866 5.70755C3.54815 5.76907 3.50492 5.87746 3.50475 5.96412C3.49947 9.01083 3.49982 12.0576 3.50066 15.1043C3.5009 15.9942 4.09916 16.5932 4.98868 16.5935C7.86548 16.5945 10.7424 16.5944 13.6192 16.5935C14.4763 16.5932 15.0598 16.0393 15.103 15.1902C15.1241 14.7742 15.4291 14.4764 15.8253 14.4848C16.2206 14.4932 16.5092 14.8058 16.5087 15.2248C16.5068 16.5704 15.4736 17.7667 14.1428 17.9652C14.098 17.9719 14.0546 17.9883 14.0106 18.0001C10.87 18.0001 7.72929 18.0001 4.58867 18.0001C4.56814 17.9905 4.54849 17.9758 4.52697 17.9722C3.04781 17.7198 2.09448 16.5952 2.09416 15.0981C2.09346 11.9366 2.09518 8.77507 2.0917 5.61354C2.09142 5.3505 2.16957 5.13369 2.36311 4.95594C2.55179 4.78266 2.73724 4.60585 2.93791 4.41766C2.58396 4.06621 2.25792 3.74783 1.93786 3.42348C1.34646 2.82421 1.34358 1.98605 1.92956 1.38431C2.15829 1.14943 2.3996 0.926543 2.6227 0.686602C2.9178 0.369176 3.23857 0.0981914 3.67465 7.02739e-05C3.81524 -3.86281e-08 3.95586 0 4.09649 0ZM15.1031 3.69014C15.1031 3.57497 15.1033 3.48212 15.1031 3.38931C15.1008 2.48537 14.5113 1.8977 13.6048 1.89735C12.1172 1.89678 10.6295 1.89721 9.14187 1.89721C9.086 1.89721 9.03015 1.89721 8.93948 1.89721C8.99882 1.96186 9.03131 2 9.06664 2.03537C9.57985 2.54922 10.0951 3.06105 10.6052 3.57796C10.6855 3.65927 10.7657 3.69292 10.8803 3.69257C12.1512 3.68877 13.4221 3.69018 14.693 3.69018C14.8211 3.69014 14.9492 3.69014 15.1031 3.69014ZM2.94501 2.39375C3.26705 2.71332 3.59681 3.04056 3.8929 3.33439C4.20779 3.02998 4.53763 2.71111 4.85266 2.40655C4.53183 2.08561 4.20733 1.76094 3.8943 1.44777C3.57828 1.76263 3.25196 2.08782 2.94501 2.39375Z" fill="#3CBBEF"/>
<path d="M12.1488 11.5529C12.1397 13.0283 11.0356 14.2304 9.56357 14.3677C8.14554 14.4998 6.83031 13.4769 6.56625 12.0375C6.46335 11.4766 6.54868 10.9446 6.79266 10.4314C7.17287 9.63155 7.69642 8.928 8.24897 8.24379C8.43291 8.01601 8.61987 7.78978 8.819 7.5754C9.10868 7.26349 9.56575 7.25186 9.84732 7.56658C10.5827 8.38842 11.2689 9.2487 11.7849 10.2306C12.0514 10.7377 12.1515 11.1198 12.1488 11.5529ZM9.34775 9.142C8.94369 9.5509 8.23213 10.615 8.03853 11.1061C7.98977 11.2298 7.94255 11.3618 7.93432 11.4925C7.89839 12.0622 8.25337 12.621 8.78152 12.8518C9.31635 13.0854 9.94143 12.9586 10.347 12.534C10.7592 12.1025 10.8468 11.5352 10.5825 10.9815C10.2625 10.3113 9.81226 9.72851 9.34775 9.142Z" fill="#3CBBEF"/>
</g>
</g>
<defs>
<clipPath id="clip0_3726_7296">
<rect width="18" height="18" fill="white"/>
</clipPath>
</defs>
</svg>
