<svg width="18" height="18" viewBox="0 0 18 18" fill="none" xmlns="http://www.w3.org/2000/svg">
<g clip-path="url(#clip0_3726_7272)">
<mask id="mask0_3726_7272" style="mask-type:luminance" maskUnits="userSpaceOnUse" x="0" y="0" width="18" height="18">
<path d="M18 0H0V18H18V0Z" fill="white"/>
</mask>
<g mask="url(#mask0_3726_7272)">
<path d="M15.058 0.320312C15.4576 0.468933 15.5943 0.762648 15.5885 1.17963C15.5734 2.25853 15.5845 3.33779 15.5827 4.41692C15.5821 4.79616 15.4071 5.04801 15.0906 5.13973C14.6913 5.25544 14.286 4.98627 14.2391 4.57218C14.2308 4.49946 14.2305 4.4256 14.2304 4.35228C14.2298 3.53306 14.2301 2.71384 14.2301 1.89462C14.2301 1.82781 14.2301 1.761 14.2301 1.67639C14.1528 1.67639 14.0926 1.67639 14.0324 1.67639C10.401 1.67639 6.76952 1.67634 3.13813 1.67643C2.61149 1.67643 2.35434 1.93598 2.3543 2.4703C2.35394 6.15399 2.35412 9.83768 2.35407 13.5213C2.35407 13.5816 2.35407 13.6419 2.35407 13.6702C2.81155 13.6413 3.2476 13.6137 3.70743 13.5847C3.70743 13.5219 3.70743 13.4447 3.70743 13.3674C3.70743 10.1979 3.70712 7.02831 3.70879 3.85878C3.70883 3.74116 3.71123 3.61863 3.74251 3.50684C3.82731 3.20391 4.12794 3.00823 4.44186 3.03431C4.75401 3.06021 5.01098 3.30556 5.04954 3.62039C5.06048 3.70971 5.06039 3.80074 5.06039 3.89096C5.06088 7.04354 5.06079 10.1962 5.06079 13.3488C5.06079 13.4275 5.06079 13.5063 5.06079 13.6094C5.13682 13.6094 5.20218 13.6094 5.2675 13.6094C7.10012 13.6094 8.9327 13.6088 10.7654 13.6099C11.2088 13.6102 11.5191 13.9312 11.483 14.3457C11.4537 14.6822 11.188 14.9429 10.8513 14.9636C10.7894 14.9674 10.7272 14.9654 10.6652 14.9654C8.13897 14.9655 5.61279 14.9651 3.0866 14.9658C2.63192 14.9659 2.32148 15.2859 2.36031 15.7091C2.39037 16.0364 2.65303 16.2954 2.98155 16.319C3.0489 16.3239 3.11684 16.3214 3.18446 16.3214C7.06961 16.3214 10.9548 16.3213 14.8399 16.3217C15.2335 16.3217 15.5175 16.5429 15.57 16.8866C15.6193 17.21 15.4617 17.4947 15.1608 17.6267C15.1258 17.6421 15.0922 17.6605 15.0579 17.6775C10.9639 17.6775 6.86991 17.6775 2.77593 17.6775C2.52362 17.5865 2.25079 17.5309 2.0228 17.3981C1.32589 16.9921 0.999722 16.3629 1.00004 15.5566C1.00144 11.8005 1.00063 8.04443 1.00063 4.28832C1.00063 3.65574 0.998817 3.0231 1.00135 2.39052C1.00424 1.66699 1.29149 1.07653 1.89515 0.682371C2.15632 0.511874 2.48041 0.438061 2.77593 0.320358C6.87 0.320313 10.964 0.320312 15.058 0.320312Z" fill="#3CBBEF"/>
<path d="M6.36719 8.32569C6.44607 7.92933 6.50008 7.52595 6.60961 7.13831C6.77468 6.55386 7.36677 6.41433 7.79676 6.84188C8.29705 7.33932 8.79548 7.83861 9.2879 8.34377C9.37473 8.43286 9.45288 8.45601 9.56782 8.42527C9.75807 8.37442 9.95045 8.33008 10.1439 8.29283C10.2422 8.27389 10.2828 8.22702 10.3014 8.12902C10.3403 7.92422 10.3898 7.72109 10.4439 7.51972C10.4705 7.42082 10.4504 7.3532 10.3776 7.27965C9.86963 6.76604 9.36379 6.25025 8.86224 5.73035C8.56531 5.42257 8.58317 4.96483 8.90346 4.71618C8.99409 4.6458 9.10913 4.59838 9.22023 4.5643C10.2877 4.23705 11.3159 4.39615 12.3128 4.84174C12.9036 5.10581 13.4136 5.48739 13.7995 6.01218C14.5199 6.99172 14.6518 8.05236 14.1894 9.17954C14.1398 9.30045 14.1598 9.36617 14.2496 9.45336C14.9782 10.1612 15.7098 10.8663 16.4245 11.5881C17.4022 12.5753 17.1006 14.2299 15.8349 14.7904C15.0694 15.1293 14.329 15.0271 13.7117 14.4577C12.9489 13.7541 12.2228 13.0102 11.4872 12.2773C11.3834 12.1739 11.3071 12.1614 11.1694 12.2135C9.46788 12.8578 7.74514 12.1334 6.90789 10.4268C6.5847 9.76814 6.42374 9.06952 6.41615 8.33546C6.39987 8.33216 6.38356 8.3289 6.36719 8.32569ZM7.84504 8.80875C7.90832 9.4328 8.12225 9.98221 8.53675 10.4396C9.19691 11.1681 10.1703 11.3065 11.0099 10.7965C11.4295 10.5417 11.6832 10.5715 12.0337 10.9171C12.8694 11.7413 13.7012 12.5695 14.5454 13.3848C14.6588 13.4943 14.8283 13.5752 14.9839 13.6043C15.2378 13.6517 15.489 13.48 15.5948 13.2428C15.7042 12.9975 15.6479 12.7223 15.4372 12.5147C14.5929 11.6832 13.7465 10.8538 12.9018 10.0227C12.5486 9.67521 12.5263 9.41223 12.7785 8.98526C13.1765 8.31141 13.2503 7.62056 12.7967 6.94386C12.3522 6.28085 11.69 5.9564 10.9257 5.81289C10.9087 5.80968 10.8899 5.81632 10.845 5.82138C11.1287 6.11293 11.3877 6.3868 11.6554 6.6519C11.8689 6.86331 11.9283 7.10757 11.8596 7.39519C11.7404 7.8943 11.6193 8.39313 11.5127 8.89504C11.4395 9.23956 11.2406 9.43705 10.9008 9.51109C10.4114 9.61771 9.92206 9.72615 9.43561 9.84553C9.11921 9.92314 8.8635 9.84765 8.6399 9.61094C8.38139 9.33733 8.1105 9.07562 7.84504 8.80875Z" fill="#3CBBEF"/>
</g>
</g>
<defs>
<clipPath id="clip0_3726_7272">
<rect width="18" height="18" fill="white"/>
</clipPath>
</defs>
</svg>
