<svg width="18" height="18" viewBox="0 0 18 18" fill="none" xmlns="http://www.w3.org/2000/svg">
<g clip-path="url(#clip0_3726_7279)">
<mask id="mask0_3726_7279" style="mask-type:luminance" maskUnits="userSpaceOnUse" x="0" y="0" width="18" height="18">
<path d="M18 0H0V18H18V0Z" fill="white"/>
</mask>
<g mask="url(#mask0_3726_7279)">
<path d="M3.376 17.9981C2.95578 17.8548 2.80366 17.5559 2.80872 17.1206C2.82261 15.9313 2.81624 14.7418 2.81241 13.5523C2.81037 12.9167 3.00988 12.3583 3.41942 11.873C3.46424 11.8199 3.50274 11.7602 3.53663 11.6993C3.96075 10.9374 4.37989 10.1727 4.80746 9.41267C5.36964 8.41342 6.24844 7.93364 7.37509 7.91325C8.45872 7.89367 9.54321 7.89328 10.6268 7.91339C11.7843 7.93487 12.6666 8.44397 13.2287 9.47546C13.5479 10.0613 13.8696 10.6459 14.2006 11.2251C14.3537 11.4931 14.5213 11.7542 14.7008 12.0053C15.0104 12.4381 15.1836 12.9145 15.1857 13.4454C15.1909 14.7168 15.1883 15.9883 15.1876 17.2597C15.1874 17.6466 14.9709 17.872 14.626 17.9981C13.9112 17.9981 13.1963 17.9981 12.4815 17.9981C11.9659 17.8294 11.8785 17.4204 11.9219 16.9538C9.96161 16.9538 8.02805 16.9538 6.08061 16.9538C6.08061 17.0154 6.07744 17.0671 6.0811 17.1183C6.11214 17.5508 5.93661 17.8509 5.52053 17.9981C4.8057 17.9981 4.09083 17.9981 3.376 17.9981ZM13.7768 15.5372C13.7768 14.8117 13.7862 14.1097 13.7696 13.4083C13.7658 13.2476 13.701 13.0713 13.6151 12.9327C13.3204 12.4576 12.8551 12.3031 12.3221 12.303C10.1086 12.3026 7.89502 12.3024 5.68148 12.304C5.55903 12.3041 5.43493 12.3117 5.31445 12.3324C4.72688 12.4334 4.19047 12.8792 4.21581 13.6194C4.23543 14.1926 4.21971 14.767 4.21971 15.3408C4.21971 15.4028 4.21971 15.4647 4.21971 15.5369C5.08554 15.5369 5.92799 15.5383 6.77037 15.5329C6.81481 15.5327 6.87145 15.4839 6.90101 15.4425C7.07078 15.2042 7.23436 14.9615 7.39953 14.72C7.55692 14.4898 7.7738 14.376 8.0534 14.3766C8.6917 14.378 9.32999 14.3787 9.96829 14.3763C10.2403 14.3753 10.4559 14.4791 10.6154 14.6995C10.7458 14.8797 10.8964 15.0488 11.0025 15.2422C11.1392 15.4917 11.3263 15.5519 11.6002 15.5441C12.319 15.5236 13.0388 15.5372 13.7768 15.5372ZM5.58772 10.8843C7.88008 10.8843 10.1294 10.8843 12.4006 10.8843C12.2491 10.6105 12.1059 10.357 11.9677 10.1006C11.6953 9.59527 11.2576 9.33325 10.7003 9.32362C9.56487 9.30403 8.42883 9.30945 7.29325 9.32224C6.85313 9.3272 6.45738 9.49764 6.19623 9.85975C5.9693 10.1745 5.79623 10.528 5.58772 10.8843Z" fill="#3CBBEF"/>
<path d="M18 7.10156C17.976 7.15352 17.9526 7.20584 17.9277 7.25738C17.7928 7.53652 17.4839 7.69964 17.1887 7.64814C16.8636 7.59146 16.6079 7.34136 16.6005 7.01863C16.5866 6.40979 16.2923 5.99488 15.7964 5.66627C13.8247 4.35959 11.8624 3.0387 9.89666 1.72304C9.26557 1.30064 8.73355 1.29997 8.10439 1.72118C6.12907 3.04358 4.15765 4.37189 2.17589 5.68463C1.64268 6.03781 1.39939 6.49927 1.4014 7.13886C1.41177 10.4667 1.40242 13.7946 1.41089 17.1224C1.41202 17.5576 1.26299 17.856 0.84375 18C0.749988 18 0.656262 18 0.5625 18C0.279668 17.9078 0.0921094 17.7204 0 17.4375C0 13.8516 0 10.2656 0 6.67969C0.010582 6.64105 0.0252422 6.60301 0.0311836 6.56371C0.163406 5.68898 0.623988 5.03364 1.35348 4.54704C3.3429 3.22 5.32681 1.88473 7.31788 0.56018C7.54924 0.406266 7.80391 0.279281 8.06249 0.176942C8.28193 0.0901056 8.52261 0.056918 8.75391 0C8.91798 0 9.08202 0 9.24609 0C9.7419 0.0792774 10.2067 0.236109 10.628 0.518906C12.6503 1.87622 14.675 3.23005 16.699 4.58487C17.1887 4.91263 17.5675 5.33704 17.7806 5.88871C17.8787 6.14271 17.9284 6.41545 18 6.67972C18 6.82031 18 6.96094 18 7.10156Z" fill="#3CBBEF"/>
<path d="M17.1544 18.0019C16.7347 17.8592 16.5839 17.5616 16.586 17.1261C16.5964 14.948 16.5902 12.7699 16.5923 10.5918C16.5924 10.4819 16.5991 10.3677 16.6291 10.263C16.71 9.98086 16.9638 9.78799 17.2488 9.77435C17.5534 9.75976 17.8154 9.92015 17.9361 10.1953C17.957 10.2427 17.9775 10.2903 17.9982 10.3378C17.9982 12.705 17.9982 15.0722 17.9982 17.4394C17.9032 17.7194 17.7179 17.9091 17.4357 18.0019C17.3419 18.0019 17.2482 18.0019 17.1544 18.0019Z" fill="#3CBBEF"/>
<path d="M12.8294 13.9561C12.8316 14.3413 12.5122 14.6619 12.1266 14.6616C11.7398 14.6613 11.4235 14.3424 11.4258 13.9553C11.4281 13.5767 11.7402 13.2625 12.1186 13.2579C12.503 13.2533 12.8273 13.5718 12.8294 13.9561Z" fill="#3CBBEF"/>
<path d="M5.82683 14.6616C5.44063 14.6573 5.12662 14.3345 5.13291 13.9483C5.13917 13.5637 5.46595 13.2493 5.85042 13.258C6.22705 13.2665 6.53793 13.5862 6.536 13.9631C6.53399 14.349 6.21224 14.6659 5.82683 14.6616Z" fill="#3CBBEF"/>
</g>
</g>
<defs>
<clipPath id="clip0_3726_7279">
<rect width="18" height="18" fill="white"/>
</clipPath>
</defs>
</svg>
