<svg width="9" height="9" viewBox="0 0 9 9" fill="none" xmlns="http://www.w3.org/2000/svg">
<g clip-path="url(#clip0_3726_7315)">
<mask id="mask0_3726_7315" style="mask-type:luminance" maskUnits="userSpaceOnUse" x="0" y="0" width="9" height="9">
<path d="M9 9V0H0V9H9Z" fill="white"/>
</mask>
<g mask="url(#mask0_3726_7315)">
<path d="M-0.0116682 2.50018C0.0298566 2.33318 0.0960569 2.18328 0.229881 2.07189C0.454106 1.88521 0.779732 1.8813 1.00433 2.06945C1.04781 2.10586 1.08868 2.14611 1.12803 2.18746C2.22413 3.33879 3.31991 4.49045 4.41543 5.64236C4.44013 5.66834 4.46148 5.69785 4.51126 5.7584C4.53716 5.71211 4.54956 5.67439 4.57371 5.64896C5.67691 4.48764 6.78158 3.32789 7.88481 2.1666C8.07931 1.96187 8.30193 1.87618 8.57233 1.96392C8.97423 2.09436 9.13733 2.6333 8.88066 2.98333C8.85208 3.02231 8.82093 3.05964 8.78783 3.09445C7.51793 4.42955 6.24786 5.76444 4.97731 7.09888C4.73986 7.34827 4.44476 7.39937 4.17693 7.23358C4.11223 7.19351 4.05471 7.13753 4.00111 7.08126C2.76328 5.78223 1.52718 4.48141 0.288457 3.18335C0.151182 3.03949 0.0287065 2.89107 -0.0117188 2.68526C-0.0116682 2.62358 -0.0116682 2.56187 -0.0116682 2.50018Z" fill="#3CBBEF"/>
</g>
</g>
<defs>
<clipPath id="clip0_3726_7315">
<rect width="9" height="9" fill="white"/>
</clipPath>
</defs>
</svg>
