<svg width="16" height="16" viewBox="0 0 16 16" fill="none" xmlns="http://www.w3.org/2000/svg">
<path d="M0 2.28349C0 1.65135 0.510714 1.14062 1.14286 1.14062H14.8571C15.4893 1.14062 16 1.65135 16 2.28349C16 2.91563 15.4893 3.42634 14.8571 3.42634H1.14286C0.510714 3.42634 0 2.91563 0 2.28349ZM0 7.99778C0 7.36563 0.510714 6.85492 1.14286 6.85492H14.8571C15.4893 6.85492 16 7.36563 16 7.99778C16 8.62992 15.4893 9.14062 14.8571 9.14062H1.14286C0.510714 9.14062 0 8.62992 0 7.99778ZM16 13.7121C16 14.3442 15.4893 14.8549 14.8571 14.8549H1.14286C0.510714 14.8549 0 14.3442 0 13.7121C0 13.0799 0.510714 12.5692 1.14286 12.5692H14.8571C15.4893 12.5692 16 13.0799 16 13.7121Z" fill="#3CBBEF"/>
</svg>
